<svg width="112" height="112" viewBox="0 0 112 112" fill="none" xmlns="http://www.w3.org/2000/svg">
<g clip-path="url(#clip0_202_183)">
<path d="M71.881 64.6173C71.6418 63.2186 71.2347 61.8535 70.6685 60.5513C69.0237 56.6847 66.203 53.4281 62.6028 51.2388C59.7593 49.5712 56.5145 48.7026 53.2141 48.7257C49.9137 48.7488 46.6815 49.6627 43.8619 51.3699C41.2351 52.9369 39.1062 55.2101 37.7203 57.928C37.2486 58.857 36.8519 59.8219 36.5342 60.8136C35.6763 63.389 35.3485 66.1099 35.5704 68.8141C35.7923 71.5183 36.5593 74.1503 37.8257 76.553C38.6922 78.0235 40.0149 79.1742 41.595 79.8321C42.3836 80.159 43.2386 80.2962 44.0905 80.2324C44.9424 80.1686 45.7672 79.9056 46.4977 79.4649C47.3015 78.8302 47.9018 77.9759 48.2249 77.0066C48.5479 76.0374 48.5798 74.9955 48.3165 74.0085C47.7043 71.5007 47.7679 68.8766 48.501 66.4011C48.792 65.5919 49.2602 64.8571 49.8716 64.2501C50.2514 63.8859 50.6875 63.5848 51.1632 63.3582C52.1564 62.8614 53.2783 62.6783 54.3789 62.8335C55.3339 63.0388 56.2262 63.467 56.9823 64.0827C57.7384 64.6984 58.3368 65.484 58.7281 66.3749C59.4601 68.121 59.845 69.9918 59.8615 71.8837C59.8751 80.4268 58.6046 88.9239 56.0922 97.093C55.855 97.9324 55.6178 98.7456 55.4069 99.5851C55.196 100.425 54.8797 101.028 55.4069 101.657C55.5909 101.918 55.8475 102.118 56.145 102.235C57.4102 102.733 58.4118 101.972 59.2553 101.133C64.0433 96.0288 67.5718 89.8858 69.5615 83.1898C70.3897 80.7362 71.0501 78.2297 71.5384 75.6874C72.2914 72.0188 72.4251 68.251 71.9338 64.5387" fill="#008375"/>
<path d="M107.307 25.7409C107.297 25.4524 107.229 25.1689 107.105 24.9076C106.982 24.6464 106.806 24.413 106.589 24.2215C106.372 24.03 106.118 23.8846 105.843 23.794C105.567 23.7035 105.276 23.6697 104.987 23.6948C103.773 23.862 102.596 24.2346 101.508 24.7965C79.3027 32.7056 55.458 34.9425 32.1587 31.3022C28.2312 30.7251 24.2511 29.9643 20.2973 29.3348C17.8196 28.9413 15.3682 28.3904 12.8905 28.2068C10.6502 27.779 8.33036 28.2201 6.40633 29.4397C5.41796 30.5214 4.80502 31.8906 4.6579 33.3453C4.51078 34.8 4.83727 36.2632 5.58922 37.5193C7.26807 40.3808 9.70192 42.7304 12.627 44.3134C15.3417 46.228 18.5545 47.3212 21.8788 47.4613C30.665 46.8842 39.4512 46.0098 48.2374 44.8381C63.13 42.9231 78.7079 41.1131 92.7043 35.3682C97.3348 33.5355 101.697 31.0915 105.673 28.1018C106.384 27.5772 107.412 26.6853 107.412 25.6622" fill="#008375"/>
<path d="M44.8371 18.3172C44.8371 20.5783 45.7397 22.7468 47.3462 24.3456C48.9527 25.9445 51.1317 26.8427 53.4037 26.8427C55.6757 26.8427 57.8546 25.9445 59.4611 24.3456C61.0677 22.7468 61.9702 20.5783 61.9702 18.3172C61.9689 17.6111 61.8161 16.9135 61.5221 16.271C60.7841 14.7233 59.9406 13.9626 60.046 12.1001C60.046 9.60802 56.9094 9.47686 55.1697 9.47686C53.2356 9.41414 51.3134 9.80039 49.5553 10.6049C48.1899 11.2965 47.0344 12.3378 46.2078 13.6216C45.3411 14.932 44.8658 16.4601 44.8371 18.0286V18.2385" fill="#D50037"/>
</g>
<defs>
<clipPath id="clip0_202_183">
<rect width="102.667" height="92.8889" fill="white" transform="translate(4.66666 9.55556)"/>
</clipPath>
</defs>
</svg>
