<svg width="112" height="112" viewBox="0 0 112 112" fill="none" xmlns="http://www.w3.org/2000/svg">
<path d="M105.559 56.9886L104.679 56.38C102.956 54.6861 100.911 53.4218 98.6876 52.6765C96.464 51.9312 94.1162 51.723 91.8101 52.0667C87.7956 52.4254 83.9274 53.8624 80.5564 56.2476V56.036C80.588 54.3723 80.7023 52.7116 80.8989 51.0611C81.0457 49.3411 81.2169 47.6211 81.2169 45.9805C81.2689 44.4097 81.0276 42.8437 80.5074 41.3761C80.4452 41.2024 80.3333 41.0549 80.1881 40.9549C80.0429 40.855 79.8719 40.8078 79.7001 40.8204C77.8643 41.0071 76.0912 41.6404 74.5136 42.6728L74.1221 43.5725C74.1155 46.0907 73.8613 48.601 73.3637 51.0611C73.3096 51.2766 73.2442 51.4886 73.168 51.6962C72.5569 58.0298 72.5569 64.4151 73.168 70.7488C73.168 71.278 74.22 72.0984 74.9539 72.4159C76.6349 72.4605 78.3046 72.1083 79.8469 71.3838H80.4096C80.5218 71.368 80.6298 71.3275 80.727 71.2649C80.8242 71.2023 80.9086 71.119 80.975 71.0199C81.0414 70.9208 81.0885 70.8081 81.1132 70.6887C81.138 70.5693 81.14 70.4457 81.1191 70.3254V68.7641C81.7885 66.0479 83.1203 63.576 84.9752 61.6069C86.8301 59.6378 89.14 58.2438 91.6634 57.5707C92.9246 57.2754 94.2355 57.345 95.4639 57.7724C96.6923 58.1998 97.7948 58.97 98.6603 60.0053C99.2205 62.636 98.8078 65.3994 97.5104 67.7057C95.6831 70.9417 92.8453 73.3634 89.5105 74.5328C85.5918 76.043 81.4296 76.6734 77.2781 76.3852C77.0579 76.2529 72.7521 73.1039 72.7521 73.1039C68.7721 69.8159 64.4539 67.0366 59.8836 64.8213C58.8334 64.1875 57.8491 63.4334 56.9479 62.5721L56.532 62.1752C54.0855 60.0053 49.3149 56.6182 45.5228 53.8926L43.4923 52.3842V51.9344C43.4923 51.8021 45.9387 50.2673 45.9387 50.2673C47.7992 49.2734 49.5408 48.0383 51.1253 46.5891L51.5901 46.298L59.8592 41.2173C67.7858 36.5071 76.7888 31.1618 81.5105 25.8694L81.7307 25.0491V24.3346C82.011 23.3609 82.011 22.3181 81.7307 21.3445C81.6997 21.1745 81.6227 21.0182 81.5094 20.8957C81.3962 20.7732 81.2518 20.6899 81.0946 20.6564C77.4004 20.2595 72.6543 22.6411 68.324 27.0338C67.5231 27.8312 66.626 28.5077 65.6573 29.0448L64.9968 29.4153C60.1038 32.3526 49.4617 39.5767 43.8348 43.4931C44.3666 35.5544 45.3224 27.6555 46.6971 19.8361L46.5503 18.91L45.9632 17.7456L45.5228 16.8988C44.6757 16.452 43.6996 16.3854 42.8072 16.7137L41.6819 17.1635L40.1895 17.7456C40.0473 17.7783 39.9148 17.8486 39.8038 17.9502C39.6928 18.0518 39.6068 18.1815 39.5534 18.3278C36.5059 27.2748 34.6684 36.6508 34.0978 46.1657C29.9731 43.3663 25.7099 40.8134 21.3272 38.5182V38.5182H21.0336C19.9622 38.2293 18.95 37.7267 18.0489 37.0364L16.0183 35.6074L12.8868 33.4375L12.055 33.2258C10.2306 33.8497 8.60929 35.025 7.38225 36.613C7.28888 36.781 7.23824 36.9726 7.23547 37.1686C7.25838 37.4381 7.30758 37.7043 7.38225 37.9625L7.52906 38.6505L7.67584 39.0739C10.4504 41.5908 13.4984 43.7323 16.7523 45.4512L21.0336 47.9122L27.6146 51.7757L28.74 52.7547L29.4984 53.231H29.6452C27.8837 54.4747 17.7064 61.8576 17.7064 61.8576L11.2966 66.6207C10.1219 67.3172 8.91321 67.9443 7.67584 68.4995C6.48587 68.9502 5.48096 69.8404 4.83792 71.0134L4.66666 71.4103L4.83792 71.675L5.32722 72.0719L5.96329 72.5218L6.67277 73.0246L7.30886 73.1568C9.34539 72.8581 11.3121 72.149 13.107 71.0663C15.9205 69.7168 23.5535 64.7419 26.8318 62.625L28.2262 61.6989C28.8898 61.6018 29.5072 61.2772 29.9877 60.7727C30.9107 60.0347 31.8932 59.3882 32.9235 58.8409C32.9235 58.8409 33.4617 58.5234 33.9265 58.2588V58.6822C33.8694 66.9617 34.4752 75.231 35.7369 83.3976V83.3976V83.6622C36.4927 85.476 37.0589 87.3753 37.425 89.325L38.6482 93.8236L39.0152 94.247C40.3147 95.089 41.8064 95.5199 43.321 95.4907H43.688L43.9081 94.935C44.0291 94.2549 44.0865 93.5635 44.0794 92.871C44.0794 92.0507 44.0794 91.1509 44.0794 90.0395V88.4253C43.6146 80.8837 43.1742 69.902 43.1742 62.7573V62.1752L49.5351 66.5149C58.3424 72.6805 71.5533 82.048 79.7001 84.509C79.9024 84.5742 80.1169 84.5817 80.3227 84.5306C80.5285 84.4796 80.7185 84.3719 80.8744 84.2179L82.1221 83.3711H82.3423C82.6174 83.1302 82.836 82.8226 82.9806 82.4732C83.1251 82.1237 83.1914 81.7424 83.1741 81.36C89.9508 81.016 99.4187 78.1846 104.483 71.3045C106.292 68.811 107.289 65.7414 107.321 62.5721C107.429 60.6403 106.832 58.7398 105.657 57.2797" fill="#FCAF17"/>
</svg>
