<svg width="112" height="112" viewBox="0 0 112 112" fill="none" xmlns="http://www.w3.org/2000/svg">
<g clip-path="url(#clip0_202_425)">
<path d="M102.667 89.2839C102.666 91.0336 102.321 92.766 101.65 94.3822C100.98 95.9984 99.9978 97.4667 98.76 98.7033C97.5222 99.9399 96.0529 100.921 94.4361 101.589C92.8192 102.258 91.0865 102.602 89.3368 102.601H22.6651C19.1314 102.602 15.7418 101.2 13.2417 98.7029C10.7417 96.2056 9.3358 92.8176 9.33334 89.2839V22.7105C9.3363 19.1773 10.7424 15.79 13.2425 13.2934C15.7426 10.7968 19.1319 9.39535 22.6651 9.39732H89.3368C91.0862 9.3961 92.8188 9.73951 94.4355 10.4079C96.0522 11.0763 97.5214 12.0567 98.7593 13.2929C99.9971 14.5292 100.979 15.9972 101.65 17.6131C102.32 19.2289 102.666 20.9611 102.667 22.7105V89.2839Z" fill="#FFE400"/>
<path d="M76.018 65.3224C75.5996 62.0737 73.9755 59.101 71.4677 56.9938C71.0966 56.6672 70.6939 56.3629 70.2485 56.001C70.6196 55.7226 70.9277 55.5092 71.2153 55.2698C73.0203 53.7758 74.4146 51.8463 75.2665 49.6636C76.0733 47.5996 76.3291 45.3612 76.0088 43.1684C75.6538 40.5011 74.475 38.0112 72.6368 36.046C71.3269 34.5873 69.7085 33.4386 67.8991 32.6834C66.1418 31.9719 64.261 31.6156 62.3652 31.6349H41.1206C40.9741 31.6265 40.8272 31.6265 40.6807 31.6349C40.4477 31.6455 40.2282 31.7471 40.0693 31.9178C39.9104 32.0885 39.8247 32.3148 39.8308 32.548C39.8308 32.6964 39.8308 32.843 39.8308 32.9896V78.8917C39.8308 79.1218 39.8178 79.3538 39.8308 79.5839C39.8403 79.7741 39.916 79.955 40.0448 80.0953C40.1735 80.2356 40.3473 80.3265 40.536 80.3522C40.6819 80.3699 40.829 80.3755 40.9758 80.3689H62.9776C65.1934 80.3776 67.3714 79.7953 69.2872 78.682C72.0245 77.1439 74.1372 74.6963 75.259 71.7638C76.0689 69.7195 76.3306 67.499 76.018 65.3224ZM59.1102 66.9741H55.1408V45.0762H59.0657C59.0657 45.0762 59.0509 45.065 59.0657 45.065V45.0762H59.1102V66.9741Z" fill="#1E1719"/>
</g>
<defs>
<clipPath id="clip0_202_425">
<rect width="93.3333" height="93.2053" fill="white" transform="translate(9.33334 9.39736)"/>
</clipPath>
</defs>
</svg>
