<svg width="112" height="112" viewBox="0 0 112 112" fill="none" xmlns="http://www.w3.org/2000/svg">
<g clip-path="url(#clip0_202_111)">
<path d="M53.7103 5.40529C43.7023 5.85916 34.0539 9.27107 25.9854 15.2094C17.9169 21.1477 11.7908 29.3456 8.38217 38.7662C4.97357 48.1867 4.43551 58.4065 6.83612 68.1328C9.23672 77.8592 14.4682 86.6549 21.8686 93.4076C29.269 100.16 38.5058 104.566 48.4108 106.069C58.3157 107.571 68.4437 106.102 77.5135 101.847C86.5833 97.592 94.1874 90.7428 99.3639 82.1656C104.54 73.5884 107.057 63.6687 106.595 53.6611C106.298 47.0157 104.694 40.4941 101.874 34.4691C99.055 28.4441 95.0759 23.0338 90.1644 18.5476C85.2529 14.0614 79.5053 10.5872 73.2502 8.32369C66.9952 6.06021 60.3553 5.05178 53.7103 5.35608V5.40529Z" fill="url(#paint0_radial_202_111)"/>
<path d="M53.6855 4.71728C43.5424 5.17582 33.7629 8.6321 25.5842 14.649C17.4055 20.6658 11.1948 28.973 7.73764 38.5198C4.28047 48.0666 3.73215 58.4243 6.16198 68.2828C8.59181 78.1413 13.8906 87.0578 21.3884 93.9046C28.8861 100.751 38.2458 105.221 48.2838 106.748C58.3219 108.275 68.5874 106.791 77.7818 102.483C86.9763 98.1753 94.6868 91.2378 99.9382 82.5478C105.19 73.8577 107.746 63.8055 107.284 53.6625C106.664 40.0631 100.671 27.266 90.6206 18.0836C80.5703 8.90118 67.2854 4.08466 53.6855 4.69264V4.71728ZM59.6928 54.5242C68.8269 62.9443 73.8249 67.4744 73.8249 67.4744C89.902 80.8679 84.4116 93.1042 78.2565 97.3635C73.3098 100.663 67.5097 102.451 61.564 102.509C61.3582 102.54 61.1482 102.53 60.9466 102.478C60.745 102.426 60.5559 102.335 60.3904 102.208C60.225 102.082 60.0867 101.923 59.9838 101.742C59.8809 101.562 59.8154 101.362 59.7913 101.155C59.7913 99.9979 61.4409 99.7025 61.4409 99.7025C76.6316 96.7234 72.1753 86.7522 66.8081 81.6804C64.5677 79.5384 43.4188 61.2948 43.4188 61.2948C23.2794 44.0606 24.8797 30.3962 24.8797 30.3962C25.8399 13.7283 40.4398 9.59209 51.4943 10.5523C52.7745 10.6754 53.4885 11.4633 53.2669 12.522C53.0454 13.5806 51.3219 13.8022 51.3219 13.8022C48.1644 13.7202 45.0405 14.4672 42.2617 15.9688C33.3737 21.9515 36.0081 32.1443 47.8751 43.4696C49.3523 44.8976 50.9526 46.3995 52.5776 47.926C52.5776 47.926 54.9657 50.0187 59.6928 54.5242ZM52.7992 97.6097C52.7992 99.2593 48.9338 99.9486 44.4283 99.5055C37.6913 99.0262 31.2752 96.4426 26.0861 92.1194C21.0926 87.6232 17.4807 81.7997 15.6718 75.3283C13.9976 69.5179 13.2097 62.7473 16.0657 63.2644C16.9028 63.4367 18.38 67.179 19.9557 69.8872C21.0101 71.9168 22.4581 73.7162 24.215 75.1806C24.7813 75.5991 26.677 71.2906 29.5329 68.8532C31.1579 67.4991 32.9552 67.0313 33.2506 71.069C33.5953 75.9931 32.709 81.902 34.137 81.902C35.565 81.902 38.544 80.8679 45.2161 80.3017C47.6782 80.1047 49.1553 80.5724 46.7672 83.9454C45.0218 86.6029 42.7918 88.9081 40.1936 90.7407C45.8809 96.0094 52.6761 95.3693 52.7992 97.6097ZM57.2801 45.9071C56.8255 43.7948 56.7587 41.6173 57.0831 39.4811C57.7561 35.1133 59.0841 30.8719 61.0223 26.9002C63.4844 21.0652 57.7232 17.643 58.5603 15.501C59.8406 12.5958 63.8783 16.2888 68.4084 16.5596C72.2738 16.7812 74.6128 16.5597 77.6165 16.9782C81.605 17.5199 86.3813 18.8494 88.4986 21.3606C90.6159 23.8719 87.4892 26.4324 83.8946 24.6844C81.2849 23.4041 77.9858 24.192 79.9061 26.9248C81.3512 28.7379 83.4426 29.9204 85.7411 30.224C92.2655 31.9474 92.4133 38.2009 87.9816 41.4508C82.9344 45.1192 77.8626 43.6174 75.8192 36.379C74.7851 32.7599 72.2246 30.9379 69.6149 31.9473C67.0051 32.9568 68.5561 37.7331 70.5504 42.1155C74.4896 52.2099 64.6662 51.9637 63.5336 51.7421C62.0522 51.4372 60.6839 50.7286 59.5803 49.6944C58.4766 48.6603 57.6805 47.3409 57.2801 45.8824V45.9071Z" fill="url(#paint1_radial_202_111)"/>
</g>
<defs>
<radialGradient id="paint0_radial_202_111" cx="0" cy="0" r="1" gradientUnits="userSpaceOnUse" gradientTransform="translate(63.9065 39.4197) scale(48.1177 48.1177)">
<stop stop-color="white"/>
<stop offset="1" stop-color="#CF9C51"/>
</radialGradient>
<radialGradient id="paint1_radial_202_111" cx="0" cy="0" r="1" gradientUnits="userSpaceOnUse" gradientTransform="translate(51.9946 24.771) scale(107.784 107.784)">
<stop stop-color="#00C0F3"/>
<stop offset="0.22" stop-color="#0097D6"/>
<stop offset="0.28" stop-color="#0086CA"/>
<stop offset="0.37" stop-color="#0074BD"/>
<stop offset="0.46" stop-color="#0069B5"/>
<stop offset="0.57" stop-color="#0066B3"/>
</radialGradient>
<clipPath id="clip0_202_111">
<rect width="102.667" height="102.667" fill="white" transform="translate(4.66667 4.66667)"/>
</clipPath>
</defs>
</svg>
