<svg width="112" height="112" viewBox="0 0 112 112" fill="none" xmlns="http://www.w3.org/2000/svg">
<g clip-path="url(#clip0_202_424)">
<path d="M74.1879 9.89188L55.9999 19.0391L37.8119 9.89188L55.9999 44.4598L74.1879 9.89188Z" fill="#FFB71B"/>
<path d="M80.6778 36.491L93.6541 31.0664V12.772L71.1052 22.4511L58.5541 46.0636C63.3826 46.6203 67.8153 49.0024 70.9439 52.722C74.0725 56.4416 75.6602 61.2169 75.3814 66.0693C75.1026 70.9217 72.9786 75.4838 69.4446 78.8206C65.9106 82.1574 61.2342 84.0164 56.3739 84.0164C51.5135 84.0164 46.8371 82.1574 43.3031 78.8206C39.7691 75.4838 37.6451 70.9217 37.3663 66.0693C37.0875 61.2169 38.6749 56.4416 41.8035 52.722C44.9321 49.0024 49.3648 46.6203 54.1932 46.0636L41.6425 22.4511L19.2001 12.772V31.0664L32.389 36.491C26.6689 41.4909 22.6105 48.117 20.7556 55.4843C18.9006 62.8516 19.3372 70.6094 22.0075 77.7219C24.6779 84.8344 29.4546 90.9631 35.6998 95.2892C41.9451 99.6153 49.3615 101.933 56.9588 101.933C64.556 101.933 71.9725 99.6153 78.2177 95.2892C84.4629 90.9631 89.2397 84.8344 91.91 77.7219C94.5804 70.6094 95.0173 62.8516 93.1623 55.4843C91.3073 48.117 87.2486 41.4909 81.5285 36.491H80.6778Z" fill="#FFB71B"/>
</g>
<defs>
<clipPath id="clip0_202_424">
<rect width="74.6667" height="92.2165" fill="white" transform="translate(18.6667 9.89188)"/>
</clipPath>
</defs>
</svg>
