<svg width="112" height="112" viewBox="0 0 112 112" fill="none" xmlns="http://www.w3.org/2000/svg">
<g clip-path="url(#clip0_202_266)">
<path d="M106.588 55.9882C106.593 66.0369 103.617 75.8613 98.037 84.2184C92.457 92.5756 84.5238 99.0901 75.2409 102.938C65.9579 106.785 55.7423 107.793 45.8864 105.834C36.0305 103.875 26.9771 99.0362 19.8716 91.9307C12.766 84.8251 7.92758 75.7717 5.96829 65.9158C4.009 56.0599 5.01693 45.8444 8.86456 36.5614C12.7122 27.2784 19.2266 19.3452 27.5837 13.7653C35.9409 8.18534 45.7653 5.20948 55.814 5.21409C69.2783 5.22026 82.1893 10.5716 91.71 20.0923C101.231 29.6129 106.582 42.5239 106.588 55.9882Z" fill="white"/>
<path d="M55.8136 104.362C65.3811 104.362 74.7337 101.525 82.6887 96.2097C90.6438 90.8943 96.8441 83.3393 100.505 74.5001C104.167 65.6609 105.125 55.9345 103.258 46.5508C101.392 37.1672 96.7844 28.5478 90.0192 21.7825C83.2539 15.0173 74.6345 10.4101 65.2509 8.5436C55.8672 6.67708 46.1408 7.63505 37.3016 11.2964C28.4624 14.9577 20.9075 21.1579 15.5921 29.113C10.2767 37.068 7.43951 46.4207 7.43951 55.9881C7.43951 68.8177 12.5361 81.1218 21.608 90.1937C30.6799 99.2656 42.984 104.362 55.8136 104.362Z" fill="#0083CA"/>
<mask id="mask0_202_266" style="mask-type:alpha" maskUnits="userSpaceOnUse" x="7" y="7" width="98" height="98">
<path d="M55.8136 104.362C65.3811 104.362 74.7337 101.525 82.6888 96.2098C90.6439 90.8944 96.8441 83.3394 100.505 74.5002C104.167 65.661 105.125 55.9346 103.258 46.5509C101.392 37.1673 96.7845 28.5479 90.0192 21.7826C83.254 15.0174 74.6346 10.4102 65.2509 8.54371C55.8673 6.67719 46.1409 7.63516 37.3017 11.2965C28.4625 14.9578 20.9075 21.158 15.5921 29.1131C10.2767 37.0682 7.43958 46.4208 7.43958 55.9882C7.43958 68.8178 12.5361 81.1219 21.608 90.1938C30.6799 99.2657 42.984 104.362 55.8136 104.362Z" fill="#0083CA"/>
</mask>
<g mask="url(#mask0_202_266)">
<path d="M55.9767 79.3596C77.2277 79.3596 95.4495 85.2782 103.256 93.6668C105.955 87.495 107.344 80.8298 107.333 74.0935C107.333 60.479 101.925 47.4222 92.2981 37.7953C82.6712 28.1685 69.6145 22.7601 56 22.7601C42.3856 22.7601 29.3287 28.1685 19.7018 37.7953C10.075 47.4222 4.66662 60.479 4.66662 74.0935C4.65693 80.8274 6.03726 87.4908 8.72113 93.6668C16.5039 85.2782 34.7024 79.3596 55.9767 79.3596Z" fill="#0083CA"/>
<path d="M55.9767 79.4083C77.1811 79.4083 95.3563 85.2803 103.139 93.6223C105.82 87.4946 107.201 80.8773 107.193 74.1888C107.193 46.6696 84.2414 24.3002 55.93 24.3002C27.6186 24.3002 4.66661 46.6696 4.66661 74.1888C4.65737 80.8775 6.03809 87.4952 8.72113 93.6223C16.5971 85.2803 34.7024 79.4083 55.9767 79.4083Z" fill="#0085CB"/>
<path d="M55.9767 79.4528C77.1112 79.4528 95.2398 85.3015 102.999 93.5502C105.677 87.4789 107.058 80.9155 107.054 74.2799C107.054 46.9705 84.1483 24.7175 55.9767 24.7175C27.8051 24.7175 4.89965 46.9938 4.89965 74.2799C4.88984 80.9161 6.27107 87.4806 8.95417 93.5502C16.6903 85.3015 34.8189 79.4528 55.9767 79.4528Z" fill="#0086CC"/>
<path d="M55.9533 79.5227C77.0412 79.5227 95.1466 85.3015 102.883 93.5037C105.548 87.5186 106.929 81.0413 106.937 74.4896C106.937 47.4132 84.1016 25.2534 55.9767 25.2534C27.8517 25.2534 5.06275 47.4132 5.06275 74.4896C5.04763 81.0713 6.42129 87.5822 9.09394 93.5969C16.7835 85.3015 34.8654 79.5227 55.9533 79.5227Z" fill="#0088CC"/>
<path d="M55.9534 79.5693C76.9248 79.5693 95.0301 85.3015 102.743 93.4338C105.411 87.475 106.784 81.0183 106.774 74.4896C106.774 47.6229 84.0084 25.5563 55.9534 25.5563C27.8983 25.5563 5.15599 47.5996 5.15599 74.4896C5.1467 81.0157 6.51231 87.4706 9.16386 93.4338C16.8767 85.3015 34.9121 79.5693 55.9534 79.5693Z" fill="#0089CD"/>
<path d="M55.9534 79.6159C76.9248 79.6159 94.9136 85.3015 102.557 93.3639C105.205 87.4572 106.571 81.0561 106.564 74.5828C106.564 47.9258 83.8454 25.9991 55.8835 25.9991C27.9217 25.9991 5.22597 47.9491 5.22597 74.5828C5.2204 81.0535 6.57805 87.4528 9.21052 93.3639C16.9699 85.3015 34.982 79.6159 55.9534 79.6159Z" fill="#008BCE"/>
<path d="M55.9534 79.6858C76.9248 79.6858 94.8204 85.3015 102.556 93.3173C105.202 87.4589 106.568 81.104 106.564 74.676C106.564 48.252 83.9152 26.4418 56.0233 26.4418C28.1313 26.4418 5.48218 48.252 5.48218 74.676C5.47948 81.1014 6.83751 87.4545 9.4668 93.3173C17.0631 85.3015 35.0286 79.6858 55.9534 79.6858Z" fill="#008DCF"/>
<path d="M55.9301 79.7324C76.9015 79.7324 94.7039 85.3248 102.37 93.2474C104.997 87.4414 106.356 81.1418 106.355 74.7692C106.355 48.5783 83.7754 26.8612 55.9301 26.8612C28.0847 26.8612 5.52887 48.5783 5.52887 74.7692C5.52584 81.1421 6.88433 87.4421 9.51342 93.2474C17.1563 85.3248 35.0752 79.7324 55.9301 79.7324Z" fill="#008ED0"/>
<path d="M55.9301 79.7791C76.7384 79.7791 94.6107 85.3248 102.23 93.1775C104.87 87.4333 106.23 81.184 106.215 74.8624C106.215 48.8812 83.6822 27.3039 55.9301 27.3039C28.1779 27.3039 5.66867 48.9045 5.66867 74.8624C5.65558 81.1814 7.00673 87.4287 9.6299 93.1775C17.2495 85.3248 35.1218 79.7791 55.9301 79.7791Z" fill="#0090D0"/>
<path d="M55.9301 79.849C76.6685 79.849 94.4942 85.3248 102.114 93.1308C104.732 87.4298 106.083 81.2291 106.075 74.9556C106.075 49.3239 83.6123 27.7234 55.9301 27.7234C28.2478 27.7234 5.78516 49.2074 5.78516 74.9556C5.78559 81.2281 7.13665 87.427 9.74645 93.1308C17.3661 85.3248 35.1684 79.849 55.9301 79.849Z" fill="#0092D1"/>
<path d="M55.93 79.8956C76.6218 79.8956 94.3777 85.3248 101.997 93.0609C104.602 87.413 105.953 81.2683 105.958 75.0488C105.958 49.4171 83.5424 28.1428 55.93 28.1428C28.3177 28.1428 5.90167 49.5336 5.90167 75.0488C5.90209 81.2689 7.25363 87.4146 9.86289 93.0609C17.4592 85.3248 35.215 79.8956 55.93 79.8956Z" fill="#0093D2"/>
<path d="M55.9068 79.9422C76.552 79.9422 94.2845 85.3481 101.858 92.991C104.464 87.4014 105.816 81.3094 105.819 75.142C105.819 49.8365 83.4493 28.5389 55.9068 28.5389C28.3644 28.5389 6.04153 49.8132 6.04153 75.142C6.03442 81.308 7.37861 87.4005 9.9795 92.991C17.5525 85.3481 35.2617 79.9422 55.9068 79.9422Z" fill="#0095D3"/>
<path d="M55.9068 80.0121C76.4821 80.0121 94.1679 85.3481 101.741 92.9444C104.337 87.4018 105.681 81.3557 105.679 75.2353C105.679 50.1628 83.3794 29.0049 55.9068 29.0049C28.4343 29.0049 6.15799 50.1628 6.15799 75.2353C6.15083 81.3563 7.49551 87.4033 10.096 92.9444C17.6457 85.3481 35.3082 80.0121 55.9068 80.0121Z" fill="#0097D4"/>
<path d="M55.9068 80.0587C76.4355 80.0587 94.0747 85.3481 101.601 92.8745C104.194 87.3968 105.539 81.4121 105.539 75.3517C105.539 50.489 83.3095 29.4477 55.9068 29.4477C28.5042 29.4477 6.27448 50.4191 6.27448 75.3517C6.27247 81.4123 7.61756 87.3976 10.2124 92.8745C17.7388 85.3481 35.3549 80.0587 55.9068 80.0587Z" fill="#0098D5"/>
<path d="M55.8835 80.1053C76.3655 80.1053 93.9582 85.3481 101.485 92.8046C104.058 87.3791 105.395 81.4499 105.399 75.445C105.399 50.7919 83.2162 29.8671 55.8835 29.8671C28.5508 29.8671 6.41425 50.8385 6.41425 75.445C6.41279 81.4505 7.75017 87.3809 10.329 92.8046C17.8321 85.3481 35.4014 80.1053 55.8835 80.1053Z" fill="#009AD5"/>
<path d="M55.8835 80.1519C76.2957 80.1519 93.8418 85.3714 101.345 92.758C103.915 87.381 105.253 81.498 105.259 75.5382C105.259 51.1181 83.1463 30.3098 55.8835 30.3098C28.6207 30.3098 6.53082 51.1181 6.53082 75.5382C6.53212 81.4986 7.8698 87.3828 10.4455 92.758C17.9253 85.3714 35.448 80.1519 55.8835 80.1519Z" fill="#009CD6"/>
<path d="M55.8835 80.2218C76.249 80.2218 93.7485 85.3714 101.228 92.6881C103.78 87.3636 105.11 81.5359 105.12 75.6314C105.12 51.4444 83.0531 30.7293 55.8835 30.7293C28.7138 30.7293 6.74048 51.4444 6.74048 75.6314C6.74473 81.5392 8.08288 87.3697 10.6551 92.6881C18.0184 85.3714 35.4946 80.2218 55.8835 80.2218Z" fill="#009ED7"/>
<path d="M55.8835 80.2684C76.1791 80.2684 93.632 85.3714 101.088 92.6182C103.65 87.355 104.981 81.578 104.98 75.7246C104.98 51.7473 82.9832 31.1487 55.8835 31.1487C28.7838 31.1487 6.7405 51.7473 6.7405 75.7246C6.73377 81.5787 8.0648 87.3569 10.6319 92.6182C18.1117 85.3714 35.5412 80.2684 55.8835 80.2684Z" fill="#00A0D8"/>
<path d="M55.8601 80.315C76.1092 80.315 93.5388 85.3714 100.972 92.5716C103.515 87.3525 104.838 81.6235 104.84 75.8178C104.84 52.0735 82.9133 31.5448 55.9068 31.5448C28.9003 31.5448 6.97351 52.0269 6.97351 75.8178C6.97342 81.6237 8.29626 87.3533 10.8416 92.5716C18.2049 85.3714 35.5878 80.315 55.8601 80.315Z" fill="#00A1D9"/>
<path d="M55.8602 80.3849C76.0626 80.3849 93.4223 85.3947 100.832 92.5017C103.374 87.3404 104.698 81.6644 104.7 75.911C104.7 52.3997 82.8201 32.0109 55.767 32.0109C28.7139 32.0109 6.83374 52.3997 6.83374 75.911C6.84453 81.6634 8.16745 87.3376 10.7018 92.5017C18.3913 85.3947 35.6577 80.3849 55.8602 80.3849Z" fill="#00A3DA"/>
<path d="M55.8601 80.4315C75.9927 80.4315 93.3057 85.3947 100.716 92.4318C103.232 87.3608 104.555 81.7815 104.584 76.1207C104.584 52.8191 82.7501 32.5701 55.8601 32.5701C28.9702 32.5701 7.15991 52.8191 7.15991 76.1207C7.18056 81.7798 8.49568 87.3592 11.0047 92.4318C18.3912 85.3947 35.7043 80.4315 55.8601 80.4315Z" fill="#00A5DB"/>
<path d="M55.8602 80.4781C75.9228 80.4781 93.1427 85.3947 100.576 92.3852C103.118 87.3235 104.442 81.7381 104.444 76.0741C104.444 53.0055 82.6803 32.8497 55.8602 32.8497C29.0401 32.8497 7.27649 53.0055 7.27649 76.0741C7.27619 81.7357 8.59243 87.3197 11.1212 92.3852C18.3913 85.3947 35.7509 80.4781 55.8602 80.4781Z" fill="#00A7DC"/>
<path d="M55.8369 80.548C75.8762 80.548 93.1194 85.3947 100.459 92.3153C102.978 87.3211 104.295 81.8073 104.304 76.2139C104.304 53.3551 82.5871 33.3158 55.8369 33.3158C29.0867 33.3158 7.41626 53.3551 7.41626 76.2139C7.41735 81.8056 8.72597 87.3195 11.2377 92.3153C18.5777 85.3947 35.7976 80.548 55.8369 80.548Z" fill="#00A9DD"/>
<path d="M55.8369 80.5946C75.8064 80.5946 93.0029 85.418 100.32 92.2454C102.838 87.3095 104.156 81.8485 104.164 76.3071C104.164 53.658 82.5172 33.7352 55.8369 33.7352C29.1566 33.7352 7.53278 53.658 7.53278 76.3071C7.54205 81.8457 8.85099 87.3048 11.3543 92.2454C18.671 85.418 35.8442 80.5946 55.8369 80.5946Z" fill="#00ABDE"/>
<path d="M55.8369 80.6412C75.7598 80.6412 92.8864 85.418 100.11 92.292C102.607 87.3993 103.917 81.9868 103.931 76.4935C103.931 54.0774 82.3541 34.2711 55.7437 34.2711C29.1333 34.2711 7.55609 54.0774 7.55609 76.4935C7.59254 81.9572 8.90934 87.3362 11.4008 92.1988C18.7874 85.418 35.8908 80.6412 55.8369 80.6412Z" fill="#00ADDE"/>
<path d="M55.8136 80.6878C75.6898 80.6878 92.7699 85.3481 100.087 92.1289C102.594 87.2981 103.904 81.9361 103.908 76.4935C103.908 54.3104 82.3774 34.5507 55.8369 34.5507C29.2964 34.5507 7.81238 54.2638 7.81238 76.4935C7.81723 81.9332 9.11931 87.2932 11.6105 92.1289C18.8806 85.418 35.9374 80.6878 55.8136 80.6878Z" fill="#00AFDF"/>
<path d="M55.8136 80.7577C75.6199 80.7577 92.6767 85.418 99.9467 92.059C102.435 87.2806 103.738 81.974 103.745 76.5867C103.745 54.6134 82.2841 35.0168 55.8136 35.0168C29.343 35.0168 7.90558 54.6134 7.90558 76.5867C7.91023 81.9744 9.21306 87.2816 11.7037 92.059C18.9738 85.418 35.9839 80.7577 55.8136 80.7577Z" fill="#00B1E0"/>
<path d="M55.8136 80.8043C75.5733 80.8043 92.5602 85.4646 99.807 92.0124C102.294 87.2838 103.597 82.0227 103.605 76.6799C103.605 54.9396 82.2143 35.4595 55.8136 35.4595C29.4129 35.4595 8.02209 54.9396 8.02209 76.6799C8.02714 82.023 9.3306 87.2848 11.8203 92.0124C19.067 85.4413 36.0306 80.8043 55.8136 80.8043Z" fill="#00B3E1"/>
<path d="M55.8136 80.8509C75.5034 80.8509 92.467 85.5112 99.6904 91.9425C102.16 87.2667 103.455 82.0608 103.465 76.7731C103.465 55.2425 82.121 35.8789 55.8136 35.8789C29.5061 35.8789 8.16187 55.2658 8.16187 76.7731C8.17218 82.0608 9.46771 87.2667 11.9368 91.9425C19.1603 85.4413 36.0772 80.8509 55.8136 80.8509Z" fill="#0DB5E2"/>
<path d="M55.7903 80.9208C75.4335 80.9208 92.3504 85.4413 99.5506 91.8726C102.018 87.2547 103.314 82.1019 103.326 76.8664C103.326 55.5687 82.0511 36.3216 55.7903 36.3216C29.5294 36.3216 8.27844 55.5687 8.27844 76.8664C8.2899 82.1019 9.58609 87.2547 12.0533 91.8726C19.2535 85.4413 36.1238 80.9208 55.7903 80.9208Z" fill="#19B7E3"/>
<path d="M55.7903 80.9674C75.3869 80.9674 92.2339 85.4413 99.4341 91.826C101.895 87.2645 103.192 82.1659 103.209 76.9829C103.209 56.0115 81.9812 36.7411 55.7903 36.7411C29.5993 36.7411 8.3949 55.895 8.3949 76.9829C8.4092 82.1662 9.70602 87.2655 12.1697 91.826C19.3466 85.4413 36.1703 80.9674 55.7903 80.9674Z" fill="#21B9E4"/>
<path d="M55.7903 81.014C75.317 81.014 92.1408 85.4646 99.3176 91.7561C101.759 87.2467 103.048 82.2038 103.069 77.0761C103.069 56.1047 81.888 37.1838 55.7903 37.1838C29.6925 37.1838 8.53473 56.1979 8.53473 77.0761C8.54518 82.2023 9.82614 87.2461 12.263 91.7561C19.4399 85.4646 36.217 81.014 55.7903 81.014Z" fill="#28BBE5"/>
<path d="M55.7903 81.1305C75.2937 81.1305 92.0941 85.5578 99.2477 91.8026C101.691 87.3279 102.981 82.3144 102.999 77.2159C102.999 56.5008 81.8647 37.6032 55.7903 37.6032C29.7158 37.6032 8.60461 56.5474 8.60461 77.2159C8.61195 82.3129 9.89357 87.3272 12.3329 91.8026C19.4865 85.5578 36.2636 81.1305 55.7903 81.1305Z" fill="#37BDE6"/>
<path d="M55.7903 81.2704C75.2704 81.2704 92.0475 85.6511 99.1778 91.8726C101.625 87.4245 102.915 82.4326 102.929 77.3557C102.929 56.7804 81.8181 37.9528 55.7903 37.9528C29.7624 37.9528 8.65125 56.7804 8.65125 77.3557C8.67604 82.4283 9.95694 87.4158 12.3795 91.8726C19.5331 85.6511 36.2868 81.2704 55.7903 81.2704Z" fill="#43BFE6"/>
<path d="M55.7902 81.4801C75.247 81.4801 91.9776 85.8375 99.1311 92.0124C101.561 87.6004 102.843 82.6487 102.859 77.612C102.859 57.1532 81.888 38.4421 55.7902 38.4421C29.6925 38.4421 8.72113 57.0833 8.72113 77.612C8.73479 82.6491 10.017 87.6015 12.4494 92.0124C19.5797 85.7443 36.3101 81.4801 55.7902 81.4801Z" fill="#4DC0E7"/>
<path d="M55.7903 81.4801C75.2238 81.4801 91.931 85.8142 99.0613 91.9425C101.501 87.5671 102.792 82.6448 102.813 77.6353C102.813 57.3164 81.8414 38.7217 55.7903 38.7217C29.7391 38.7217 8.79108 57.363 8.79108 77.6353C8.80823 82.6394 10.0822 87.559 12.496 91.9425C19.6263 85.8375 36.3335 81.4801 55.7903 81.4801Z" fill="#56C2E8"/>
<path d="M55.7903 81.6432C75.2005 81.6432 91.8844 85.9307 99.0147 92.0124C101.433 87.6716 102.715 82.7904 102.743 77.8217C102.743 57.6426 81.7715 39.1411 55.7903 39.1411C29.809 39.1411 8.86096 57.6426 8.86096 77.8217C8.86739 82.7902 10.1427 87.6748 12.5659 92.0124C19.6729 85.9307 36.3568 81.6432 55.7903 81.6432Z" fill="#5EC4E8"/>
<path d="M55.7903 81.7597C75.1539 81.7597 91.8378 86.0239 98.9448 92.0823C101.372 87.7707 102.656 82.9095 102.673 77.9615C102.673 57.9222 81.7016 39.5373 55.7903 39.5373C29.8789 39.5373 8.90753 57.9222 8.90753 77.9615C8.92787 82.9061 10.2026 87.7647 12.6125 92.0823C19.7427 86.1404 36.3801 81.7597 55.7903 81.7597Z" fill="#65C6E9"/>
<path d="M55.7903 81.8762C75.1306 81.8762 91.7912 86.1171 98.8982 92.1289C101.299 87.8584 102.574 83.0471 102.603 78.148C102.603 58.2484 81.6317 39.98 55.7903 39.98C29.9488 39.98 9.07068 58.1785 9.07068 78.1013C9.09632 83.0009 10.3715 87.813 12.7756 92.0823C19.7894 86.1404 36.4267 81.8762 55.7903 81.8762Z" fill="#6DC7EA"/>
<path d="M55.7903 81.9927C75.1073 81.9927 91.7446 86.2103 98.8283 92.1755C101.248 87.9125 102.524 83.0963 102.533 78.1945C102.533 58.4115 81.5618 40.2596 55.7903 40.2596C30.0188 40.2596 9.07068 58.4814 9.07068 78.2644C9.07148 83.1643 10.3397 87.9806 12.7523 92.2454C19.836 86.1404 36.45 81.9927 55.7903 81.9927Z" fill="#74C9EA"/>
<path d="M55.7903 82.1325C75.084 82.1325 91.698 86.3035 98.7817 92.2454C101.176 88.0229 102.452 83.2583 102.487 78.4042C102.487 58.761 81.5152 40.7256 55.8835 40.7256C30.2518 40.7256 9.2804 58.7843 9.2804 78.4042C9.29368 83.2582 10.562 88.0263 12.9621 92.2454C19.8826 86.3035 36.4733 82.1325 55.7903 82.1325Z" fill="#7ACBEB"/>
<path d="M55.7902 82.249C75.0606 82.249 91.6514 86.3967 98.7117 92.292C101.115 88.1155 102.392 83.386 102.417 78.5674C102.417 59.064 81.4453 41.1217 55.8136 41.1217C30.1819 41.1217 9.21045 59.064 9.21045 78.5674C9.23535 83.3829 10.5036 88.1105 12.8921 92.292C19.9292 86.3967 36.4965 82.249 55.7902 82.249Z" fill="#81CDEC"/>
<path d="M55.7903 82.3655C75.0373 82.3655 91.6048 86.4899 98.6652 92.3386C101.051 88.1898 102.32 83.493 102.347 78.7072C102.347 59.3436 81.4919 41.4247 55.7437 41.4247C29.9955 41.4247 9.14056 59.2737 9.14056 78.7072C9.15379 83.4949 10.4233 88.1953 12.8222 92.3386C19.9758 86.4899 36.5199 82.3655 55.7903 82.3655Z" fill="#87CFEC"/>
<path d="M55.7903 82.5053C75.0141 82.5053 91.5349 86.5831 98.5953 92.3852C100.983 88.2709 102.252 83.6036 102.277 78.847C102.277 59.6232 81.4453 41.8907 55.7903 41.8907C30.1353 41.8907 9.30371 59.6232 9.30371 78.847C9.3207 83.6017 10.582 88.2691 12.9621 92.3852C20.0224 86.5831 36.5432 82.5053 55.7903 82.5053Z" fill="#8ED1ED"/>
<path d="M55.7903 82.6219C74.9907 82.6219 91.4883 86.6763 98.5486 92.4551C100.929 88.372 102.199 83.7364 102.23 79.0101C102.23 59.9028 81.422 42.2868 55.7903 42.2868C30.1585 42.2868 9.3736 59.9261 9.3736 79.0101C9.39383 83.7349 10.6554 88.3714 13.032 92.4551C20.069 86.6763 36.5898 82.6219 55.7903 82.6219Z" fill="#94D3EE"/>
<path d="M55.7903 82.7383C74.9675 82.7383 91.4417 86.7695 98.4787 92.5017C100.903 88.4651 102.213 83.858 102.277 79.1499C102.277 60.1824 81.4919 42.683 55.9068 42.683C30.3217 42.683 9.53674 60.2057 9.53674 79.1499C9.55686 83.8453 10.819 88.4518 13.195 92.5017C20.1156 86.7695 36.6131 82.7383 55.7903 82.7383Z" fill="#9AD5EF"/>
<path d="M55.7902 82.8549C74.9441 82.8549 91.395 86.8627 98.4088 92.5483C100.788 88.5409 102.058 83.9732 102.09 79.313C102.09 60.4854 81.352 43.0791 55.7902 43.0791C30.2284 43.0791 9.49005 60.4854 9.49005 79.313C9.5107 83.9716 10.7736 88.5404 13.1484 92.5483C20.1622 86.8627 36.6364 82.8549 55.7902 82.8549Z" fill="#A0D7F0"/>
<path d="M55.7903 82.9946C74.9209 82.9946 91.3485 86.9559 98.3623 92.5949C100.725 88.6161 101.988 84.0804 102.021 79.4528C102.021 60.8116 81.3055 43.4752 55.7903 43.4752C30.2751 43.4752 9.56 60.765 9.56 79.4528C9.57322 84.08 10.8286 88.6187 13.195 92.5949C20.2088 86.9559 36.6597 82.9946 55.7903 82.9946Z" fill="#A6D9F0"/>
<path d="M55.7903 83.1112C74.8975 83.1112 91.3019 87.0491 98.2923 92.6648C100.673 88.7177 101.944 84.2018 101.974 79.5926C101.974 60.9514 81.2822 43.8714 55.7903 43.8714C30.2984 43.8714 9.62988 61.0679 9.62988 79.5926C9.64533 84.1975 10.901 88.7131 13.2649 92.6648C20.2554 87.0491 36.683 83.1112 55.7903 83.1112Z" fill="#ACDCF1"/>
<path d="M55.7902 83.2277C74.8509 83.2277 91.2552 87.1424 98.2457 92.7114C100.604 88.7987 101.868 84.3241 101.904 79.7557C101.904 61.3242 81.2355 44.2675 55.7902 44.2675C30.3449 44.2675 9.69977 61.3475 9.69977 79.7557C9.7199 84.3201 10.9674 88.795 13.3116 92.7114C20.3253 87.1424 36.7063 83.2277 55.7902 83.2277Z" fill="#B2DEF2"/>
<path d="M55.7903 83.3442C74.8277 83.3442 91.2087 87.2355 98.1758 92.6648C100.534 88.7862 101.798 84.3415 101.834 79.8023C101.834 61.5339 81.189 44.5704 55.7903 44.5704C30.3916 44.5704 9.74646 61.5339 9.74646 79.8023C9.76015 84.3414 11.0173 88.79 13.3815 92.6648C20.372 87.2355 36.7529 83.3442 55.7903 83.3442Z" fill="#B8E0F3"/>
<path d="M55.7903 83.484C74.8043 83.484 91.1621 87.3288 98.1292 92.8046C100.473 88.955 101.729 84.5421 101.764 80.0354C101.764 61.8835 81.1657 45.083 55.7903 45.083C30.4149 45.083 9.81635 61.9301 9.81635 80.0354C9.83635 84.5443 11.0937 88.9612 13.4514 92.8046C20.4185 87.3288 36.7762 83.484 55.7903 83.484Z" fill="#BDE2F4"/>
<path d="M55.7903 83.6005C74.781 83.6005 91.1154 87.422 98.0593 92.9211C100.405 89.1067 101.662 84.723 101.694 80.2451C101.694 62.233 81.119 45.4792 55.7903 45.4792C30.4615 45.4792 9.88623 62.2563 9.88623 80.2451C9.90673 84.7214 11.156 89.1062 13.4979 92.9211C20.4651 87.422 36.7995 83.6005 55.7903 83.6005Z" fill="#C3E5F5"/>
<path d="M55.7902 83.8102C74.7577 83.8102 91.0455 87.6084 98.0127 93.0143C100.348 89.2293 101.604 84.8785 101.648 80.4315C101.648 62.5592 81.0957 45.9219 55.7902 45.9219C30.4847 45.9219 9.95612 62.5825 9.95612 80.4315C9.96867 84.8765 11.2106 89.2314 13.5446 93.0143C20.5117 87.5152 36.8228 83.8102 55.7902 83.8102Z" fill="#C9E7F5"/>
<path d="M55.7902 83.8102C74.7344 83.8102 90.9989 87.5618 97.9428 92.9211C100.276 89.1782 101.533 84.8651 101.578 80.4548C101.578 62.699 81.0491 46.1782 55.7902 46.1782C30.5313 46.1782 10.0027 62.8388 10.0027 80.5014C10.0243 84.9118 11.275 89.2288 13.6145 92.9677C20.5583 87.6084 36.8461 83.8102 55.7902 83.8102Z" fill="#CEE9F6"/>
<path d="M55.7903 83.9733C74.7111 83.9733 90.9523 87.7016 97.8962 93.0376C100.219 89.317 101.469 85.0271 101.508 80.6412C101.508 63.0485 81.0258 46.6209 55.7903 46.6209C30.5547 46.6209 10.0726 63.0485 10.0726 80.6412C10.0926 85.0657 11.3606 89.3948 13.731 93.1308C20.7215 87.7016 36.8694 83.9733 55.7903 83.9733Z" fill="#D4ECF7"/>
<path d="M55.7903 84.0898C74.6878 84.0898 90.9057 87.7948 97.7331 93.0842C100.06 89.4083 101.311 85.1545 101.345 80.8043C101.345 63.3282 80.8861 47.0171 55.6971 47.0171C30.5081 47.0171 10.0494 63.3282 10.0494 80.8043C10.0855 85.1788 11.3621 89.4532 13.731 93.1308C20.7215 87.7948 37.0325 84.0898 55.7903 84.0898Z" fill="#DAEEF8"/>
<path d="M55.7902 84.2063C74.6645 84.2063 90.8591 87.888 97.733 93.1308C100.06 89.4884 101.32 85.2663 101.368 80.9441C101.368 63.6078 80.9094 47.4132 55.767 47.4132C30.6246 47.4132 10.1891 63.7243 10.1891 80.9441C10.2059 85.2578 11.433 89.4802 13.731 93.1308C20.7214 87.888 37.0325 84.2063 55.7902 84.2063Z" fill="#DFF1F9"/>
<path d="M55.7903 84.3461C74.6412 84.3461 90.7426 87.9812 97.7331 93.1775C100.055 89.5683 101.307 85.3753 101.345 81.0839C101.345 63.8874 80.9327 47.8093 55.8136 47.8093C30.6945 47.8093 10.2823 63.9107 10.2823 81.0839C10.3001 85.3749 11.5453 89.5713 13.8708 93.1775C20.7215 87.9812 37.0325 84.3461 55.7903 84.3461Z" fill="#E5F3FA"/>
<path d="M55.7903 84.4627C74.6179 84.4627 90.7426 88.0744 97.7331 93.2474C100.048 89.6693 101.3 85.5082 101.345 81.247C101.345 64.1903 80.956 48.2054 55.8835 48.2054C30.811 48.2054 10.4221 64.1903 10.4221 81.247C10.4506 85.504 11.6869 89.6654 13.9873 93.2474C20.7214 88.0744 37.0325 84.4627 55.7903 84.4627Z" fill="#EBF6FB"/>
<path d="M55.7902 84.5792C74.5946 84.5792 90.7426 88.1676 97.5932 93.294C99.892 89.7444 101.136 85.6155 101.182 81.3869C101.182 64.4699 80.8394 48.6016 55.7902 48.6016C30.7411 48.6016 10.3989 64.4699 10.3989 81.4801C10.4244 85.7083 11.6617 89.8406 13.964 93.3871C20.838 88.1676 37.0325 84.5792 55.7902 84.5792Z" fill="#F1F8FD"/>
<path d="M55.7902 84.6957C74.5713 84.6957 90.7426 88.2608 97.5233 93.3405C99.841 89.8171 101.088 85.6973 101.112 81.4801C101.112 64.6796 80.7928 48.8579 55.7902 48.8579C30.7877 48.8579 10.4688 64.633 10.4688 81.4801C10.49 85.6692 11.7198 89.7632 14.0106 93.2706C20.9078 88.2608 37.0325 84.6957 55.7902 84.6957Z" fill="#F7FBFE"/>
<path d="M55.7902 84.8355C74.4315 84.8355 90.6028 88.354 97.4767 93.4104C99.7572 89.9474 101.002 85.9056 101.065 81.7597C101.065 65.0991 80.7695 49.4637 55.7902 49.4637C30.811 49.4637 10.5153 65.1224 10.5153 81.7597C10.5585 85.9053 11.7963 89.9506 14.0805 93.4104C20.9544 88.4705 37.0325 84.8355 55.7902 84.8355Z" fill="white"/>
<path d="M55.7903 68.1982C40.7089 68.0592 25.7213 70.5834 11.5173 75.6547C15.3212 84.1978 21.5198 91.4551 29.3629 96.5483C37.2059 101.642 46.3571 104.352 55.7088 104.352C65.0605 104.352 74.2116 101.642 82.0547 96.5483C89.8977 91.4551 96.0963 84.1978 99.9002 75.6547C85.7495 70.5957 70.8176 68.0716 55.7903 68.1982Z" fill="#0083CA"/>
</g>
</g>
<defs>
<clipPath id="clip0_202_266">
<rect width="102.667" height="101.571" fill="white" transform="translate(4.66669 5.21407)"/>
</clipPath>
</defs>
</svg>
